<?xml version="1.0" encoding="UTF-8" standalone="no"?>
<svg
   xmlns:dc="http://purl.org/dc/elements/1.1/"
   xmlns:cc="http://creativecommons.org/ns#"
   xmlns:rdf="http://www.w3.org/1999/02/22-rdf-syntax-ns#"
   xmlns:svg="http://www.w3.org/2000/svg"
   xmlns="http://www.w3.org/2000/svg"
   xmlns:sodipodi="http://sodipodi.sourceforge.net/DTD/sodipodi-0.dtd"
   xmlns:inkscape="http://www.inkscape.org/namespaces/inkscape"
   sodipodi:docname="re3_logo_2_o.svg"
   inkscape:version="1.0.1 (3bc2e813f5, 2020-09-07)"
   id="svg8"
   version="1.1"
   viewBox="0 0 270.93333 270.93334"
   height="1024"
   width="1024"
   inkscape:export-filename="/home/hazelnot/Design/re3_logo_2_o.png"
   inkscape:export-xdpi="96"
   inkscape:export-ydpi="96">
  <defs
     id="defs2" />
  <sodipodi:namedview
     inkscape:window-maximized="1"
     inkscape:window-y="0"
     inkscape:window-x="0"
     inkscape:window-height="1359"
     inkscape:window-width="2560"
     inkscape:snap-page="true"
     inkscape:showpageshadow="false"
     inkscape:pagecheckerboard="false"
     showgrid="false"
     inkscape:document-rotation="0"
     inkscape:current-layer="text837"
     inkscape:document-units="mm"
     inkscape:cy="365.52784"
     inkscape:cx="444.30698"
     inkscape:zoom="0.7"
     inkscape:pageshadow="2"
     inkscape:pageopacity="0"
     borderopacity="1"
     bordercolor="#000000"
     pagecolor="#606060"
     id="base"
     fit-margin-top="0"
     fit-margin-left="0"
     fit-margin-right="0"
     fit-margin-bottom="0"
     lock-margins="false"
     units="px" />
  <metadata
     id="metadata5">
    <rdf:RDF>
      <cc:Work
         rdf:about="">
        <dc:format>image/svg+xml</dc:format>
        <dc:type
           rdf:resource="http://purl.org/dc/dcmitype/StillImage" />
        <dc:title></dc:title>
      </cc:Work>
    </rdf:RDF>
  </metadata>
  <g
     aria-label="re3"
     id="text837"
     style="font-style:normal;font-weight:normal;font-size:65.8045px;line-height:1.25;font-family:sans-serif;opacity:1;mix-blend-mode:normal;fill:#c60000;fill-opacity:1;stroke:#ffffff;stroke-width:6.58389;stroke-linecap:butt;stroke-linejoin:miter;stroke-miterlimit:4;stroke-dasharray:none;stroke-opacity:1;paint-order:stroke fill markers"
     transform="matrix(2.4240622,0,0,2.4240622,-130.94353,-134.80918)">
    <g
       id="g854"
       style="fill:#000000;fill-opacity:1;stroke:#c5a967;stroke-opacity:1">
      <path
         id="path841"
         style="color:#000000;font-style:normal;font-variant:normal;font-weight:normal;font-stretch:normal;font-size:medium;line-height:1.25;font-family:sans-serif;font-variant-ligatures:normal;font-variant-position:normal;font-variant-caps:normal;font-variant-numeric:normal;font-variant-alternates:normal;font-variant-east-asian:normal;font-feature-settings:normal;font-variation-settings:normal;text-indent:0;text-align:start;text-decoration:none;text-decoration-line:none;text-decoration-style:solid;text-decoration-color:#000000;letter-spacing:normal;word-spacing:normal;text-transform:none;writing-mode:lr-tb;direction:ltr;text-orientation:mixed;dominant-baseline:auto;baseline-shift:baseline;text-anchor:start;white-space:normal;shape-padding:0;shape-margin:0;inline-size:0;clip-rule:nonzero;display:inline;overflow:visible;visibility:visible;opacity:1;isolation:auto;mix-blend-mode:normal;color-interpolation:sRGB;color-interpolation-filters:linearRGB;solid-color:#000000;solid-opacity:1;vector-effect:none;fill:#000000;fill-opacity:1;fill-rule:nonzero;stroke:#c5a967;stroke-width:2;stroke-linecap:butt;stroke-linejoin:miter;stroke-miterlimit:4;stroke-dasharray:none;stroke-dashoffset:0;stroke-opacity:1;paint-order:stroke fill markers;color-rendering:auto;image-rendering:auto;shape-rendering:auto;text-rendering:auto;enable-background:accumulate;stop-color:#000000;stop-opacity:1"
         d="M 0.00390625,0 V 183.80859 H 64.417969 v 17.40625 c 0,9.27927 3.890292,18.94923 11.382812,24.64063 7.492521,5.69144 16.724744,7.44922 26.921879,7.44922 h 166.64648 v -55.51367 c 7.09895,4.55187 15.581,6.01757 24.86133,6.01757 h 64.41406 c 10.19713,0 19.43715,-1.75582 26.92969,-7.44726 7.4925,-5.69144 11.38281,-15.3614 11.38281,-24.64063 v -46.75781 c 0,-4.44333 -1.55676,-8.979619 -3.92773,-13.08789 2.3704,-4.096101 3.92773,-8.61375 3.92773,-13.029297 V 32.591797 c 0,-9.377651 -3.78032,-19.10129 -11.26367,-24.9296876 C 378.20997,1.833715 368.88153,3.7795276e-6 358.64453,0 h -63.91992 c -10.237,0 -19.55567,1.8337113 -27.03906,7.6621094 -1.81691,1.4150954 -3.4117,3.0634166 -4.79102,4.8769526 -1.37932,-1.813536 -2.9741,-3.4618572 -4.79101,-4.8769526 C 250.62016,1.8337113 241.29364,3.7795276e-6 231.05664,0 h -64.41406 c -10.23703,0 -19.5635,1.8337113 -27.04688,7.6621094 -2.22579,1.7335521 -3.45101,4.3105176 -5.01953,6.6210936 -1.54889,-2.293224 -2.74775,-4.8542721 -4.94726,-6.5839842 C 122.19126,1.850192 112.89244,3.7795276e-6 102.72266,0 Z M 24.880859,24.884766 h 77.841801 c 6.90829,0 10.42205,1.51081 11.52343,2.376953 1.1014,0.866143 1.65235,1.251798 1.65235,5.330078 v 46.253906 c 0,0.251638 0.008,0.178655 0.008,0.287109 -0.11009,0.03962 -0.49322,0.146456 -1.70508,0.289063 l -0.20703,24.693355 c 1.13322,0.15248 1.77382,0.34519 2.15625,0.48633 3.9e-4,0.11849 0,0.17665 0,0.36133 v 75.85742 c 0,2.23945 0.75013,6.15244 3.76563,9.16797 3.0155,3.01554 6.93433,3.77149 9.17382,3.77149 h 115.39454 v 14.66015 H 102.72266 c -7.046755,0 -10.741673,-1.51904 -11.871098,-2.37695 -1.129421,-0.85795 -1.548828,-1.0067 -1.548828,-4.82617 v -93.01953 c 0,-2.23949 -0.757937,-6.15244 -3.773437,-9.167973 -3.0155,-3.015496 -6.928482,-3.773438 -9.167969,-3.773438 H 51.728516 V 158.92578 H 24.880859 Z m 141.761721,0 h 64.41406 c 7.00687,0 10.61337,1.519482 11.75195,2.40625 1.13855,0.886767 1.67578,1.248096 1.67579,5.300781 V 99.486328 H 180.0625 v 31.837892 c 0,2.23944 0.75599,6.16028 3.77148,9.17578 3.01554,3.0155 6.93048,3.76367 9.16993,3.76367 h 11.6914 c 2.23945,0 6.15244,-0.74817 9.16797,-3.76367 1.96626,-1.9663 2.78721,-4.168 3.24805,-6.18555 h 27.37305 v 17.40625 c 0,3.81948 -0.42135,3.96826 -1.55079,4.82618 -1.12939,0.85795 -4.83017,2.37695 -11.87695,2.37695 h -64.41406 c -7.04677,0 -10.74167,-1.519 -11.8711,-2.37695 -1.12942,-0.85792 -1.54882,-1.0067 -1.54882,-4.82618 V 32.591797 c 0,-4.052682 0.5294,-4.414014 1.66796,-5.300781 1.13857,-0.886772 4.74507,-2.40625 11.75196,-2.40625 z m 128.08203,0 h 0.002 63.91797 c 7.00687,0 10.61341,1.519478 11.75195,2.40625 1.13859,0.886767 1.67579,1.248099 1.67579,5.300781 v 46.253906 c 0,0.210898 0.008,0.106059 0.008,0.228516 0.1285,-0.109229 0.15583,0.107278 -1.92578,0.347656 l -0.23633,24.691405 c 1.13169,0.15227 1.77156,0.34521 2.1543,0.48633 3.9e-4,0.1188 0,0.1776 0,0.36328 v 46.75781 c 0,3.81948 -0.41943,3.96826 -1.54883,4.82618 -1.12944,0.85795 -4.83022,2.37695 -11.87696,2.37695 h -64.41601 c -7.04678,0 -10.74752,-1.519 -11.87695,-2.37695 -1.12944,-0.85792 -1.55079,-1.0067 -1.55079,-4.82618 v -17.4082 h 27.37305 c 0.46084,2.01755 1.28175,4.2212 3.24805,6.1875 3.01549,3.0155 6.92848,3.76367 9.16797,3.76367 h 11.69336 c 2.23944,0 6.15243,-0.74817 9.16796,-3.76367 3.0155,-3.0155 3.77149,-6.93634 3.77149,-9.17578 v -23.12695 c 0,-2.23949 -0.75599,-6.15439 -3.77149,-9.169926 -3.01553,-3.015496 -6.92852,-3.771485 -9.16796,-3.771485 h -50.73633 v -6.703125 h 50.73633 c 2.23944,0 6.15243,-0.748175 9.16796,-3.763672 3.0155,-3.015533 3.77149,-6.936297 3.77149,-9.175781 V 52.736328 c 0,-2.239491 -0.75595,-6.160281 -3.77149,-9.175781 -3.01553,-3.0155 -6.92852,-3.765625 -9.16796,-3.765625 h -11.6936 c -2.23949,0 -6.15248,0.750125 -9.16797,3.765625 -1.8782,1.878183 -2.71561,3.981376 -3.20313,5.935547 H 281.30469 V 32.591797 c 0,-4.052685 0.53137,-4.414014 1.66992,-5.300781 1.13847,-0.886681 4.7445,-2.40595 11.75,-2.40625 z M 51.728516,39.794922 v 48.757812 h 24.632812 c 2.239487,0 6.152469,-0.748175 9.167969,-3.763672 3.0155,-3.015533 3.773437,-6.936297 3.773437,-9.175781 V 52.736328 c 0,-2.239476 -0.757926,-6.16027 -3.773437,-9.175781 -3.015511,-3.015511 -6.928497,-3.765625 -9.167969,-3.765625 z m 141.275394,0 c -2.23945,0 -6.15439,0.750125 -9.16993,3.765625 -3.01549,3.0155 -3.77148,6.93629 -3.77148,9.175781 V 87.3125 h 37.57422 V 52.736328 c 0,-2.239491 -0.75794,-6.160281 -3.77344,-9.175781 -3.01553,-3.0155 -6.92852,-3.765625 -9.16797,-3.765625 z"
         transform="matrix(0.26458333,0,0,0.26458333,57.387749,80.632805)"
         inkscape:label="path841" />
    </g>
    <g
       id="g839"
       style="opacity:1;fill:#ffffff;fill-opacity:1">
      <path
         style="color:#000000;font-style:normal;font-variant:normal;font-weight:normal;font-stretch:normal;font-size:medium;line-height:1.25;font-family:sans-serif;font-variant-ligatures:normal;font-variant-position:normal;font-variant-caps:normal;font-variant-numeric:normal;font-variant-alternates:normal;font-variant-east-asian:normal;font-feature-settings:normal;font-variation-settings:normal;text-indent:0;text-align:start;text-decoration:none;text-decoration-line:none;text-decoration-style:solid;text-decoration-color:#000000;letter-spacing:normal;word-spacing:normal;text-transform:none;writing-mode:lr-tb;direction:ltr;text-orientation:mixed;dominant-baseline:auto;baseline-shift:baseline;text-anchor:start;white-space:normal;shape-padding:0;shape-margin:0;inline-size:0;clip-rule:nonzero;display:inline;overflow:visible;visibility:visible;isolation:auto;mix-blend-mode:normal;color-interpolation:sRGB;color-interpolation-filters:linearRGB;solid-color:#000000;solid-opacity:1;vector-effect:none;fill:#ffffff;fill-opacity:1;fill-rule:nonzero;stroke:none;stroke-width:6.58389;stroke-linecap:butt;stroke-linejoin:miter;stroke-miterlimit:4;stroke-dasharray:none;stroke-dashoffset:0;stroke-opacity:1;paint-order:stroke fill markers;color-rendering:auto;image-rendering:auto;shape-rendering:auto;text-rendering:auto;enable-background:accumulate;stop-color:#000000;stop-opacity:1"
         d="m 84.566726,139.06892 c -4.562445,0 -6.843668,-1.73285 -6.843668,-5.19856 v -24.61088 c 0,-0.0877 -0.04387,-0.13161 -0.131609,-0.13161 h -3.22442 v 16.84595 H 60.679694 V 83.92475 h 23.887032 c 4.518575,0 6.777863,1.776721 6.777863,5.330164 v 12.239636 c 0,2.01801 -1.118676,3.15862 -3.356029,3.42183 2.281223,0.30709 3.421834,1.46964 3.421834,3.48764 v 20.07037 c 0,0.0877 0.04387,0.13161 0.131609,0.13161 h 33.823507 v 10.46292 z M 77.723058,94.585079 c 0,-0.08774 -0.04387,-0.131609 -0.131609,-0.131609 h -3.22442 v 6.31723 h 3.22442 c 0.08774,0 0.131609,-0.0439 0.131609,-0.13161 z m 33.955122,0 c 0,-0.08774 -0.0439,-0.131609 -0.13161,-0.131609 h -3.09281 c -0.0877,0 -0.13161,0.04387 -0.13161,0.131609 v 5.856601 h 3.35603 z m -10.1997,31.388741 c -4.562444,0 -6.843666,-1.73285 -6.843666,-5.19855 V 89.254914 c 0,-3.553443 2.281222,-5.330164 6.843666,-5.330164 h 17.04337 c 4.56244,0 6.84366,1.776721 6.84366,5.330164 v 20.991636 h -17.04336 v 5.13275 c 0,0.0877 0.0439,0.13161 0.13161,0.13161 h 3.09281 c 0.0877,0 0.13161,-0.0439 0.13161,-0.13161 v -2.50057 h 13.68733 v 7.89654 c 0,3.4657 -2.28122,5.19855 -6.84366,5.19855 z"
         id="path843" />
    </g>
    <g
       id="g845"
       style="opacity:1;fill:#c5a967;fill-opacity:1">
      <path
         style="color:#000000;font-style:normal;font-variant:normal;font-weight:normal;font-stretch:normal;font-size:medium;line-height:1.25;font-family:Pricedown;-inkscape-font-specification:Pricedown;font-variant-ligatures:normal;font-variant-position:normal;font-variant-caps:normal;font-variant-numeric:normal;font-variant-alternates:normal;font-variant-east-asian:normal;font-feature-settings:normal;font-variation-settings:normal;text-indent:0;text-align:start;text-decoration:none;text-decoration-line:none;text-decoration-style:solid;text-decoration-color:#000000;letter-spacing:normal;word-spacing:normal;text-transform:none;writing-mode:lr-tb;direction:ltr;text-orientation:mixed;dominant-baseline:auto;baseline-shift:baseline;text-anchor:start;white-space:normal;shape-padding:0;shape-margin:0;inline-size:0;clip-rule:nonzero;display:inline;overflow:visible;visibility:visible;isolation:auto;mix-blend-mode:normal;color-interpolation:sRGB;color-interpolation-filters:linearRGB;solid-color:#000000;solid-opacity:1;vector-effect:none;fill:#c5a967;fill-opacity:1;fill-rule:nonzero;stroke:none;stroke-width:6.58389;stroke-linecap:butt;stroke-linejoin:miter;stroke-miterlimit:4;stroke-dasharray:none;stroke-dashoffset:0;stroke-opacity:1;paint-order:stroke fill markers;color-rendering:auto;image-rendering:auto;shape-rendering:auto;text-rendering:auto;enable-background:accumulate;stop-color:#000000;stop-opacity:1"
         d="m 135.23613,125.97382 c -4.56245,0 -6.84367,-1.73285 -6.84367,-5.19855 v -7.89654 h 13.68733 v 2.50057 c 0,0.0877 0.0439,0.13161 0.13161,0.13161 h 3.09281 c 0.0877,0 0.13161,-0.0439 0.13161,-0.13161 v -6.11982 c 0,-0.0877 -0.0439,-0.13161 -0.13161,-0.13161 h -16.71434 v -8.35717 h 16.71434 c 0.0877,0 0.13161,-0.0439 0.13161,-0.13161 v -6.054011 c 0,-0.08774 -0.0439,-0.131609 -0.13161,-0.131609 h -3.09281 c -0.0877,0 -0.13161,0.04387 -0.13161,0.131609 v 2.434766 h -13.55572 v -7.764931 c 0,-3.553443 2.28122,-5.330164 6.84366,-5.330164 h 16.91176 c 4.56245,0 6.84367,1.776721 6.84367,5.330164 v 12.239636 c 0,2.01801 -1.14061,3.15862 -3.42184,3.42183 2.28123,0.30709 3.42184,1.46964 3.42184,3.48764 v 12.37125 c 0,3.4657 -2.28122,5.19855 -6.84367,5.19855 z"
         id="path849" />
    </g>
  </g>
</svg>
